<?xml version="1.0" encoding="UTF-8" standalone="no"?>
<svg
   xmlns:dc="http://purl.org/dc/elements/1.1/"
   xmlns:cc="http://creativecommons.org/ns#"
   xmlns:rdf="http://www.w3.org/1999/02/22-rdf-syntax-ns#"
   xmlns:svg="http://www.w3.org/2000/svg"
   xmlns="http://www.w3.org/2000/svg"
   xmlns:sodipodi="http://sodipodi.sourceforge.net/DTD/sodipodi-0.dtd"
   xmlns:inkscape="http://www.inkscape.org/namespaces/inkscape"
   inkscape:export-ydpi="96"
   inkscape:export-xdpi="96"
   inkscape:export-filename="D:\Code\graphical-assets\app\menu_icons\my_location_not_set.png"
   sodipodi:docname="my_location_not_set.svg"
   inkscape:version="1.0 (4035a4fb49, 2020-05-01)"
   id="svg8"
   version="1.1"
   viewBox="0 0 211.66666 211.66667"
   height="800"
   width="800">
  <defs
     id="defs2" />
  <sodipodi:namedview
     inkscape:window-maximized="1"
     inkscape:window-y="-8"
     inkscape:window-x="1912"
     inkscape:window-height="1017"
     inkscape:window-width="1920"
     units="px"
     showgrid="false"
     inkscape:document-rotation="0"
     inkscape:current-layer="layer1"
     inkscape:document-units="mm"
     inkscape:cy="560"
     inkscape:cx="400"
     inkscape:zoom="0.35"
     inkscape:pageshadow="2"
     inkscape:pageopacity="0.0"
     borderopacity="1.0"
     bordercolor="#666666"
     pagecolor="#ffffff"
     id="base" />
  <metadata
     id="metadata5">
    <rdf:RDF>
      <cc:Work
         rdf:about="">
        <dc:format>image/svg+xml</dc:format>
        <dc:type
           rdf:resource="http://purl.org/dc/dcmitype/StillImage" />
        <dc:title></dc:title>
      </cc:Work>
    </rdf:RDF>
  </metadata>
  <g
     id="layer1"
     inkscape:groupmode="layer"
     inkscape:label="Layer 1">
    <path
       transform="scale(0.26458333)"
       d="M 350 0 L 350 104.19531 A 300 300 0 0 0 104.19727 350 L 0 350 L 0 450 L 104.19531 450 A 300 300 0 0 0 350 695.80273 L 350 800 L 450 800 L 450 695.80469 A 300 300 0 0 0 695.80273 450 L 800 450 L 800 350 L 695.80469 350 A 300 300 0 0 0 450 104.19727 L 450 0 L 350 0 z M 399.74805 175 A 225 225 0 0 1 400 175 A 225 225 0 0 1 625 400 A 225 225 0 0 1 400 625 A 225 225 0 0 1 175 400 A 225 225 0 0 1 399.74805 175 z "
       style="opacity:1;fill:#000000;stroke:none;stroke-width:337.605;stroke-opacity:1;fill-opacity:1"
       id="path837" />
  </g>
</svg>
