<?xml version="1.0" encoding="UTF-8" standalone="no"?>
<svg
   xmlns:dc="http://purl.org/dc/elements/1.1/"
   xmlns:cc="http://creativecommons.org/ns#"
   xmlns:rdf="http://www.w3.org/1999/02/22-rdf-syntax-ns#"
   xmlns:svg="http://www.w3.org/2000/svg"
   xmlns="http://www.w3.org/2000/svg"
   xmlns:sodipodi="http://sodipodi.sourceforge.net/DTD/sodipodi-0.dtd"
   xmlns:inkscape="http://www.inkscape.org/namespaces/inkscape"
   inkscape:export-ydpi="96"
   inkscape:export-xdpi="96"
   inkscape:export-filename="D:\Code\graphical-assets\website\weather-icons\wind-barb25.png"
   width="200"
   height="200"
   viewBox="0 0 52.916666 52.916666"
   version="1.1"
   id="svg8"
   inkscape:version="1.0 (4035a4fb49, 2020-05-01)"
   sodipodi:docname="wind-barb25.svg">
  <defs
     id="defs2" />
  <sodipodi:namedview
     id="base"
     pagecolor="#ffffff"
     bordercolor="#666666"
     borderopacity="1.0"
     inkscape:pageopacity="0.0"
     inkscape:pageshadow="2"
     inkscape:zoom="2.8"
     inkscape:cx="55.029736"
     inkscape:cy="95.720135"
     inkscape:document-units="px"
     inkscape:current-layer="layer1"
     inkscape:document-rotation="0"
     showgrid="false"
     units="px"
     inkscape:window-width="1920"
     inkscape:window-height="1017"
     inkscape:window-x="1912"
     inkscape:window-y="-8"
     inkscape:window-maximized="1"
     inkscape:snap-global="false" />
  <metadata
     id="metadata5">
    <rdf:RDF>
      <cc:Work
         rdf:about="">
        <dc:format>image/svg+xml</dc:format>
        <dc:type
           rdf:resource="http://purl.org/dc/dcmitype/StillImage" />
        <dc:title />
      </cc:Work>
    </rdf:RDF>
  </metadata>
  <g
     inkscape:label="Layer 1"
     inkscape:groupmode="layer"
     id="layer1">
    <g
       transform="translate(-2.2972239)"
       id="g1455">
      <path
         id="path833"
         style="fill:#000000;stroke-width:3.74826"
         d="m 24.804689,44.88467 a 5.622396,5.622396 0 0 1 -5.622396,5.622396 5.622396,5.622396 0 0 1 -5.622396,-5.622396 5.622396,5.622396 0 0 1 5.622396,-5.622396 5.622396,5.622396 0 0 1 5.622396,5.622396" />
      <path
         id="rect835"
         style="fill:#000000;stroke-width:2.79205"
         d="m 19.182292,10.176983 c 2.041639,0 3.685268,1.83032 3.685268,4.103857 v 28.200866 c 0,2.273537 -1.643629,4.103858 -3.685268,4.103858 -2.041638,0 -3.685267,-1.830321 -3.685267,-4.103858 V 14.28084 c 0,-2.273537 1.643629,-4.103857 3.685267,-4.103857 z" />
      <path
         id="rect837"
         style="fill:#000000;stroke-width:2.64583"
         transform="rotate(-21.798143)"
         d="m 12.82886,16.276604 h 23.529016 c 1.67519,0 3.023809,1.348619 3.023809,3.023809 0,1.675191 -1.348619,3.02381 -3.023809,3.02381 H 12.82886 c -1.675191,0 -3.0238101,-1.348619 -3.0238101,-3.02381 0,-1.67519 1.3486191,-3.023809 3.0238101,-3.023809 z" />
      <path
         id="rect837-6"
         style="fill:#000000;stroke-width:2.64583"
         transform="rotate(-21.798142)"
         d="M 7.8232892,27.138546 H 31.352305 c 1.675191,0 3.02381,1.348619 3.02381,3.02381 0,1.67519 -1.348619,3.023809 -3.02381,3.023809 H 7.8232892 c -1.6751906,0 -3.0238097,-1.348619 -3.0238097,-3.023809 0,-1.675191 1.3486191,-3.02381 3.0238097,-3.02381 z" />
      <path
         id="rect837-6-7"
         style="fill:#000000;stroke-width:2.64583"
         transform="rotate(-21.798142)"
         d="M 3.7936062,37.386272 H 17.197312 c 1.544123,0 2.787225,1.243103 2.787225,2.787226 0,1.544123 -1.243102,2.787226 -2.787225,2.787226 H 3.7936062 c -1.5441231,0 -2.7872258,-1.243103 -2.7872258,-2.787226 0,-1.544123 1.2431027,-2.787226 2.7872258,-2.787226 z" />
    </g>
  </g>
</svg>
